<svg width="760" height="190" viewBox="0 0 760 190" fill="none" xmlns="http://www.w3.org/2000/svg" role="img" aria-labelledby="logoTitle logoDesc">
  <title id="logoTitle">Tastiera Parlante</title>
  <desc id="logoDesc">Logo minimale con tastiera stilizzata, fumetto audio e nome del gioco.</desc>

  <g transform="translate(34 42)">
    <rect x="0" y="0" width="164" height="82" rx="24" fill="#FFFDF8" stroke="#DCCB9A" stroke-width="3"/>

    <circle cx="24" cy="18" r="6.5" fill="#FFD447"/>
    <circle cx="44" cy="12" r="5" fill="#FF00FF" opacity="0.9"/>
    <circle cx="142" cy="65" r="6" fill="#32CD32" opacity="0.9"/>

    <rect x="34" y="28" width="96" height="32" rx="12" fill="white" stroke="#E7DCAF" stroke-width="2.5"/>
    <rect x="46" y="37" width="18" height="13" rx="5.5" fill="#FF00FF"/>
    <rect x="68" y="37" width="18" height="13" rx="5.5" fill="#32CD32"/>
    <rect x="90" y="37" width="18" height="13" rx="5.5" fill="#F1C332"/>
    <rect x="46" y="53" width="29" height="13" rx="5.5" fill="#32CD32"/>
    <rect x="79" y="53" width="29" height="13" rx="5.5" fill="#EC9260"/>

    <path d="M120 14H169C178.389 14 186 21.6112 186 31V36C186 45.3888 178.389 53 169 53H149L136 64V53H120C110.611 53 103 45.3888 103 36V31C103 21.6112 110.611 14 120 14Z" fill="white" stroke="#DCCB9A" stroke-width="2.5"/>
    <path d="M124 31C126.6 27.2 131.4 27.2 134 31" stroke="#6A8CA2" stroke-width="4.2" stroke-linecap="round"/>
    <path d="M138 31C140.6 27.2 145.4 27.2 148 31" stroke="#6A8CA2" stroke-width="4.2" stroke-linecap="round"/>
    <path d="M152 31C154.6 27.2 159.4 27.2 162 31" stroke="#6A8CA2" stroke-width="4.2" stroke-linecap="round"/>
  </g>

  <g transform="translate(246 46)">
    <text x="0" y="42" fill="#5C492D" font-family="'Arial Rounded MT Bold', 'Trebuchet MS', sans-serif" font-size="34" font-weight="700" letter-spacing="1.7">TASTIERA</text>
    <text x="0" y="84" fill="#355D73" font-family="'Arial Rounded MT Bold', 'Trebuchet MS', sans-serif" font-size="34" font-weight="700" letter-spacing="1.7">PARLANTE</text>
    <rect x="1" y="98" width="232" height="8" rx="4" fill="#E9E1CB"/>
    <rect x="1" y="98" width="60" height="8" rx="4" fill="#FFD447"/>
    <rect x="69" y="98" width="60" height="8" rx="4" fill="#FF00FF"/>
    <rect x="137" y="98" width="60" height="8" rx="4" fill="#32CD32"/>
  </g>
</svg>
