<svg width="720" height="180" viewBox="0 0 720 180" fill="none" xmlns="http://www.w3.org/2000/svg" role="img" aria-labelledby="logoTitle logoDesc">
  <title id="logoTitle">Tastiera Parlante</title>
  <desc id="logoDesc">Logo illustrato con tastiera colorata e fumetto sonoro.</desc>
  <defs>
    <linearGradient id="bg" x1="42" y1="16" x2="678" y2="164" gradientUnits="userSpaceOnUse">
      <stop stop-color="#FFFDF6"/>
      <stop offset="1" stop-color="#FFF0C6"/>
    </linearGradient>
    <linearGradient id="bubble" x1="505" y1="18" x2="660" y2="88" gradientUnits="userSpaceOnUse">
      <stop stop-color="#8BE3FF"/>
      <stop offset="1" stop-color="#4FB8FF"/>
    </linearGradient>
    <filter id="shadow" x="0" y="0" width="720" height="180" filterUnits="userSpaceOnUse" color-interpolation-filters="sRGB">
      <feOffset dy="10"/>
      <feGaussianBlur stdDeviation="10"/>
      <feColorMatrix type="matrix" values="0 0 0 0 0.45 0 0 0 0 0.32 0 0 0 0 0.08 0 0 0 0.18 0"/>
      <feBlend in2="SourceGraphic" result="shape"/>
    </filter>
  </defs>
  <g filter="url(#shadow)">
    <rect x="20" y="18" width="680" height="144" rx="34" fill="url(#bg)"/>
    <rect x="20" y="18" width="680" height="144" rx="34" stroke="#F5C65D" stroke-width="4"/>
    <circle cx="76" cy="52" r="14" fill="#FFD447"/>
    <circle cx="112" cy="44" r="10" fill="#FF00FF" opacity="0.85"/>
    <circle cx="638" cy="128" r="12" fill="#32CD32" opacity="0.85"/>
    <path d="M122 61C122 48.8497 131.85 39 144 39H301C313.15 39 323 48.8497 323 61V120C323 132.15 313.15 142 301 142H144C131.85 142 122 132.15 122 120V61Z" fill="#FFFFFF" stroke="#F3D27B" stroke-width="4"/>
    <rect x="142" y="59" width="46" height="28" rx="10" fill="#FF00FF"/>
    <rect x="196" y="59" width="46" height="28" rx="10" fill="#32CD32"/>
    <rect x="250" y="59" width="46" height="28" rx="10" fill="#FFD447"/>
    <rect x="142" y="95" width="72" height="28" rx="10" fill="#32CD32"/>
    <rect x="222" y="95" width="74" height="28" rx="10" fill="#FF9A72"/>
    <path d="M515 26H636C649.255 26 660 36.7452 660 50V64C660 77.2548 649.255 88 636 88H572L547 103V88H515C501.745 88 491 77.2548 491 64V50C491 36.7452 501.745 26 515 26Z" fill="url(#bubble)"/>
    <path d="M522 49C526.5 43 533.5 43 538 49" stroke="white" stroke-width="6" stroke-linecap="round"/>
    <path d="M548 49C552.5 43 559.5 43 564 49" stroke="white" stroke-width="6" stroke-linecap="round"/>
    <path d="M575 49C579.5 43 586.5 43 591 49" stroke="white" stroke-width="6" stroke-linecap="round"/>
    <text x="350" y="84" fill="#6D4C1D" font-family="'Arial Rounded MT Bold', 'Trebuchet MS', sans-serif" font-size="33" font-weight="700" letter-spacing="1.5">TASTIERA</text>
    <text x="349" y="122" fill="#24556F" font-family="'Arial Rounded MT Bold', 'Trebuchet MS', sans-serif" font-size="33" font-weight="700" letter-spacing="1.5">PARLANTE</text>
  </g>
</svg>
